<svg width="138" height="146" viewBox="0 0 138 146" fill="none" xmlns="http://www.w3.org/2000/svg">
<path d="M110.067 27.9422C109.255 34.1867 110.877 21.7637 99.643 107.122C84.6198 135.21 88.1302 128.598 83.6085 137.068L40.2798 135.555L37.928 139.875L22.5398 139.337C20.9764 121.081 13.5853 27.6764 13.3418 24.5645L110.067 27.9422Z" fill="url(#paint0_linear_29_1136)"/>
<path d="M134.479 22.1915C134.418 23.9406 133.665 25.5938 132.385 26.7874C131.105 27.981 129.403 28.6173 127.654 28.5562L6.74682 24.334L7.05389 15.5408L121.762 19.5464C122.34 18.111 123.405 16.9244 124.769 16.1942C126.134 15.464 127.711 15.2366 129.227 15.5517C130.742 15.8669 132.098 16.7045 133.058 17.9182C134.018 19.1319 134.521 20.6445 134.479 22.1915Z" fill="url(#paint1_linear_29_1136)"/>
<path d="M110.374 19.1493L13.6488 15.7715L22.9026 2.88873L102.042 5.65233L110.374 19.1493Z" fill="url(#paint2_linear_29_1136)"/>
<path d="M87.0702 130.586L83.6084 137.068L40.2796 135.555L37.9277 139.874L22.5395 139.337L21.6483 128.301L87.0702 130.586Z" fill="#4DA67F"/>
<path d="M95.0838 141.871C104.797 142.21 112.945 134.611 113.284 124.898C113.624 115.185 106.025 107.037 96.3121 106.698C86.5993 106.358 78.4506 113.957 78.1115 123.67C77.7723 133.383 85.3711 141.531 95.0838 141.871Z" fill="url(#paint3_linear_29_1136)"/>
<path d="M95.0839 141.87C92.5883 141.784 90.1396 141.168 87.9006 140.062C85.6615 138.956 83.6835 137.387 82.0978 135.458C80.5122 133.529 79.3552 131.284 78.7039 128.874C78.0526 126.463 77.9218 123.941 78.3202 121.476C78.6961 125.754 80.6234 129.747 83.7391 132.703C86.8548 135.658 90.9438 137.372 95.2357 137.522C99.5276 137.672 103.726 136.247 107.041 133.516C110.355 130.785 112.556 126.936 113.229 122.695C113.455 125.182 113.149 127.688 112.331 130.048C111.513 132.407 110.202 134.565 108.486 136.379C106.769 138.193 104.687 139.621 102.376 140.567C100.065 141.514 97.5795 141.958 95.0839 141.87Z" fill="#42455E"/>
<path d="M95.4676 130.879C99.1099 131.006 102.166 128.156 102.293 124.514C102.42 120.872 99.5705 117.816 95.9282 117.689C92.286 117.562 89.2302 120.411 89.103 124.054C88.9758 127.696 91.8254 130.752 95.4676 130.879Z" fill="url(#paint4_linear_29_1136)"/>
<path d="M110.067 27.9422L109.496 32.3243L13.6939 28.9788L13.3418 24.5645L110.067 27.9422Z" fill="#78C19B"/>
<path d="M110.374 19.1489L13.6488 15.7712L16.7261 11.4767L107.604 14.6502L110.374 19.1489Z" fill="#4DA67F"/>
<path d="M68.0654 68.4923C67.9642 68.8213 67.9416 69.1694 67.9994 69.5086C68.0572 69.8479 68.1937 70.1689 68.3982 70.4458C68.6026 70.7227 68.8691 70.9477 69.1763 71.1028C69.4835 71.258 69.8229 71.3389 70.167 71.339C70.9584 71.3666 71.0745 71.1946 74.6404 69.2942C74.826 69.6528 78.5018 76.5823 78.7768 76.9C78.9514 77.2375 79.0356 77.6145 79.0212 77.9942C79.0068 78.3739 78.8942 78.7434 78.6945 79.0667C78.4949 79.39 78.2148 79.6561 77.8817 79.839C77.5486 80.0218 77.1738 80.1153 76.7938 80.1102L69.0558 79.84C68.4728 79.8197 67.9055 80.0317 67.4789 80.4296C67.0522 80.8275 66.8011 81.3785 66.7807 81.9616C66.7604 82.5446 66.9724 83.1118 67.3703 83.5385C67.7682 83.9651 68.3192 84.2163 68.9023 84.2366C75.8489 84.4792 79.8685 85.3459 82.4105 81.2528C83.0243 80.2705 83.3688 79.1438 83.4092 77.9862C83.4496 76.8285 83.1846 75.6806 82.6408 74.6579L78.5036 67.074C82.1818 65.1115 83.2477 64.8406 83.0446 63.0947C82.8414 61.3489 81.5907 61.2392 73.2502 58.6809C72.9736 58.5961 72.683 58.5667 72.395 58.5944C72.107 58.6221 71.8272 58.7064 71.5719 58.8424C70.5997 59.5788 70.8195 59.5864 68.0654 68.4923Z" fill="black"/>
<path d="M42.8716 83.3936L51.4011 83.6914L51.2675 87.5165C51.2471 88.0995 51.4592 88.6667 51.8571 89.0934C52.2549 89.5201 52.806 89.7712 53.389 89.7916C54.6421 89.8353 54.5861 89.5472 61.2748 83.3099C61.4857 83.1116 61.6554 82.8736 61.7742 82.6096C61.8929 82.3456 61.9584 82.0607 61.9668 81.7714C62.0083 80.5843 61.7437 80.597 55.5064 73.9083C55.211 73.5889 54.8276 73.3643 54.4045 73.2628C53.9815 73.1614 53.5379 73.1876 53.1297 73.3383C52.7216 73.489 52.3673 73.7573 52.1117 74.1093C51.8561 74.4613 51.7105 74.8812 51.6935 75.3159L51.5577 79.2069L43.0282 78.909C42.6448 78.895 42.2718 78.7809 41.9461 78.5781C41.6204 78.3753 41.3534 78.0909 41.1717 77.753C40.9899 77.4151 40.8997 77.0356 40.9099 76.6521C40.9202 76.2686 41.0305 75.8944 41.2301 75.5667L45.3598 68.8659C45.6691 68.3688 45.7682 67.7693 45.6354 67.1992C45.5025 66.629 45.1487 66.135 44.6516 65.8258C44.1546 65.5166 43.555 65.4174 42.9849 65.5503C42.4148 65.6831 41.9208 66.0369 41.6115 66.534L37.4818 73.2349C36.8501 74.2201 36.4917 75.3557 36.4436 76.525C36.3954 77.6944 36.6591 78.8556 37.2076 79.8895C37.7562 80.9234 38.5698 81.7928 39.5651 82.4085C40.5604 83.0243 41.7016 83.3642 42.8716 83.3936Z" fill="black"/>
<path d="M46.1795 60.5306C46.2916 61.0147 46.5642 61.4466 46.9531 61.7559C47.342 62.0652 47.8241 62.2338 48.321 62.2341C48.7387 62.2487 48.321 62.2341 57.3229 60.3475C57.7515 60.2527 58.1419 60.0318 58.4439 59.7133C58.7459 59.3948 58.9457 58.9932 59.0176 58.5602C59.0896 58.1272 59.0303 57.6826 58.8475 57.2836C58.6647 56.8845 58.3666 56.5493 57.9917 56.321L54.6959 54.269L59.173 47.0741C59.3766 46.7424 59.6644 46.4708 60.0073 46.2867C60.3501 46.1027 60.7356 46.0128 61.1245 46.0264C61.5133 46.04 61.8917 46.1565 62.2208 46.364C62.55 46.5715 62.8182 46.8626 62.9981 47.2076L66.5709 53.9354C66.8583 54.4245 67.3237 54.7836 67.8697 54.9378C68.4157 55.0919 69.0001 55.0291 69.5009 54.7625C70.0017 54.4959 70.3801 54.0461 70.5571 53.5071C70.7341 52.968 70.696 52.3815 70.4507 51.8699C67.3528 46.0391 66.0586 41.5039 60.859 41.6525C56.2326 41.777 54.9794 45.519 50.9696 51.9379L47.6525 49.8632C47.2955 49.6219 46.8754 49.4908 46.4446 49.4861C46.0137 49.4815 45.5909 49.6035 45.2288 49.837C44.8666 50.0705 44.581 50.4052 44.4075 50.7996C44.2339 51.194 44.18 51.6307 44.2524 52.0555C46.5237 62.0173 46.1872 60.3108 46.1795 60.5306Z" fill="black"/>
<path d="M120.454 17.2999L111.66 16.9929C103.328 3.49595 103.723 3.50977 102.141 3.45449C17.7914 0.508957 22.139 0.176559 21.1203 1.61565L12.5385 13.5315L7.13069 13.3426C6.54766 13.3223 5.98042 13.5343 5.55376 13.9322C5.1271 14.3301 4.87597 14.8811 4.85561 15.4642L4.54854 24.2574C4.52818 24.8404 4.74026 25.4077 5.13813 25.8343C5.536 26.261 6.08706 26.5121 6.67009 26.5325L11.3085 26.6945L20.333 139.502C20.3739 140.044 20.6142 140.552 21.0076 140.928C21.4009 141.303 21.9194 141.52 22.463 141.536C39.1482 142.118 38.115 142.082 38.8049 141.864C39.4948 141.646 39.7786 141.084 41.566 137.801L82.7623 139.239C84.9684 141.165 87.5743 142.578 90.3922 143.375C93.2101 144.173 96.1699 144.335 99.0581 143.85C101.946 143.366 104.691 142.246 107.094 140.573C109.498 138.9 111.5 136.714 112.957 134.173C114.413 131.633 115.288 128.801 115.518 125.881C115.748 122.962 115.328 120.027 114.287 117.29C113.246 114.553 111.61 112.08 109.499 110.051C107.387 108.022 104.851 106.487 102.075 105.556L111.991 30.2104L127.577 30.7546C129.122 30.814 130.655 30.4654 132.022 29.7439C133.389 29.0225 134.542 27.9535 135.364 26.6448C136.187 25.3361 136.65 23.8337 136.708 22.289C136.765 20.7443 136.414 19.2117 135.691 17.8456C134.968 16.4794 133.897 15.328 132.588 14.5071C131.278 13.6862 129.775 13.2249 128.23 13.1696C126.685 13.1143 125.153 13.4669 123.788 14.192C122.423 14.9171 121.273 15.989 120.454 17.2999ZM24.035 5.12897L100.778 7.80889L106.34 16.8071L17.8365 13.7165L24.035 5.12897ZM111.086 124.821C110.98 127.865 109.974 130.809 108.194 133.28C106.415 135.752 103.943 137.64 101.09 138.706C98.238 139.773 95.1333 139.97 92.169 139.272C89.2047 138.574 86.514 137.012 84.4371 134.785C82.3602 132.558 80.9903 129.765 80.5008 126.759C80.0113 123.753 80.4241 120.67 81.687 117.899C82.9499 115.128 85.0061 112.793 87.5957 111.191C90.1854 109.588 93.192 108.79 96.2355 108.896C100.317 109.038 104.174 110.796 106.959 113.783C109.744 116.77 111.229 120.74 111.086 124.821ZM97.752 104.547C94.0645 104.158 90.3418 104.812 87.0079 106.435C83.6741 108.059 80.8632 110.585 78.8954 113.728C76.9275 116.871 75.8819 120.503 75.8776 124.211C75.8733 127.919 76.9105 131.554 78.8709 134.701L40.3566 133.356C38.7518 133.3 38.4762 134.259 36.6418 137.629L24.573 137.207L15.7271 26.8488L107.573 30.0561L97.752 104.547ZM127.731 26.358L9.02193 22.2126L9.17546 17.816C130.654 22.0581 122.915 22.4482 123.779 20.3874C124.069 19.6326 124.56 18.9721 125.2 18.4783C125.84 17.9846 126.604 17.6767 127.407 17.5885C128.211 17.5003 129.023 17.6351 129.755 17.9783C130.487 18.3214 131.11 18.8595 131.556 19.5336C132.002 20.2077 132.254 20.9916 132.284 21.7994C132.313 22.6071 132.12 23.4075 131.725 24.1126C131.33 24.8177 130.748 25.4003 130.043 25.7964C129.339 26.1925 128.538 26.3868 127.731 26.358Z" fill="black"/>
<path d="M86.9046 123.977C86.8438 125.716 87.3002 127.434 88.2159 128.914C89.1316 130.394 90.4656 131.569 92.0491 132.29C93.6326 133.012 95.3946 133.248 97.1121 132.968C98.8297 132.688 100.426 131.906 101.698 130.719C102.971 129.532 103.863 127.994 104.262 126.301C104.661 124.607 104.549 122.833 103.939 121.203C103.33 119.573 102.251 118.16 100.838 117.143C99.4261 116.127 97.744 115.551 96.0049 115.491C93.6728 115.409 91.4038 116.258 89.6972 117.849C87.9905 119.441 86.986 121.645 86.9046 123.977ZM100.094 124.437C100.064 125.307 99.7765 126.148 99.2682 126.854C98.7598 127.56 98.0535 128.1 97.2385 128.405C96.4235 128.709 95.5364 128.766 94.6895 128.566C93.8426 128.367 93.0738 127.921 92.4804 127.284C91.887 126.648 91.4956 125.85 91.3557 124.991C91.2159 124.132 91.3338 123.251 91.6946 122.46C92.0555 121.668 92.643 121.001 93.3828 120.543C94.1227 120.085 94.9818 119.857 95.8514 119.887C97.0174 119.928 98.1195 120.43 98.9153 121.284C99.711 122.137 100.135 123.271 100.094 124.437Z" fill="black"/>
<defs>
<linearGradient id="paint0_linear_29_1136" x1="57.7128" y1="140.566" x2="61.7046" y2="26.2533" gradientUnits="userSpaceOnUse">
<stop stop-color="#6AB891"/>
<stop offset="1" stop-color="#85CBA9"/>
</linearGradient>
<linearGradient id="paint1_linear_29_1136" x1="70.498" y1="26.5602" x2="70.9578" y2="13.3924" gradientUnits="userSpaceOnUse">
<stop stop-color="#6AB891"/>
<stop offset="1" stop-color="#85CBA9"/>
</linearGradient>
<linearGradient id="paint2_linear_29_1136" x1="0.458961" y1="15.3109" x2="62.4722" y2="4.27055" gradientUnits="userSpaceOnUse">
<stop stop-color="#6AB891"/>
<stop offset="1" stop-color="#85CBA9"/>
</linearGradient>
<linearGradient id="paint3_linear_29_1136" x1="95.0838" y1="141.871" x2="96.3121" y2="106.698" gradientUnits="userSpaceOnUse">
<stop stop-color="#474F72"/>
<stop offset="1" stop-color="#878C9F"/>
</linearGradient>
<linearGradient id="paint4_linear_29_1136" x1="95.4676" y1="130.879" x2="95.9282" y2="117.689" gradientUnits="userSpaceOnUse">
<stop stop-color="#949AAF"/>
<stop offset="1" stop-color="#C6CCDA"/>
</linearGradient>
</defs>
</svg>
